<?xml version="1.0" standalone="no"?>
<!DOCTYPE svg PUBLIC "-//W3C//DTD SVG 20010904//EN"
 "http://www.w3.org/TR/2001/REC-SVG-20010904/DTD/svg10.dtd">
<svg version="1.0" xmlns="http://www.w3.org/2000/svg"
 width="225.000000pt" height="225.000000pt" viewBox="0 0 225.000000 225.000000"
 preserveAspectRatio="xMidYMid meet">
<metadata>
Created by potrace 1.10, written by Peter Selinger 2001-2011
</metadata>
<g transform="translate(0.000000,225.000000) scale(0.100000,-0.100000)"
fill="#000000" stroke="none">
<path d="M1006 2219 c-455 -48 -838 -382 -949 -829 -91 -364 12 -750 272
-1023 283 -297 688 -410 1086 -303 322 87 599 329 726 637 172 418 77 885
-245 1205 -186 184 -401 286 -666 314 -106 11 -113 11 -224 -1z m386 -68 c345
-95 614 -340 731 -667 62 -172 77 -404 38 -583 -90 -411 -400 -720 -815 -813
-127 -28 -318 -29 -442 0 -323 73 -585 275 -724 557 -94 190 -133 391 -112
579 49 450 352 810 777 921 129 34 125 34 305 30 129 -2 182 -8 242 -24z"/>
<path d="M928 1970 c-265 -65 -469 -233 -587 -481 -56 -116 -72 -184 -78 -325
-7 -144 11 -249 62 -367 53 -125 94 -185 190 -281 106 -107 207 -171 345 -217
83 -28 111 -33 230 -36 201 -7 344 31 503 133 86 55 219 189 265 267 99 166
137 315 129 501 -6 143 -27 222 -92 351 -111 223 -318 389 -562 451 -122 31
-288 32 -405 4z m452 -59 c110 -37 178 -74 263 -143 124 -99 214 -229 269
-388 31 -92 33 -101 33 -255 0 -156 -1 -163 -33 -255 -92 -262 -273 -443 -532
-531 -83 -28 -111 -33 -225 -37 -96 -3 -148 0 -198 12 -327 76 -568 316 -641
634 -21 92 -21 262 0 354 71 312 302 547 619 629 55 15 100 18 210 16 127 -3
149 -6 235 -36z"/>
<path d="M990 1400 l0 -140 -140 0 -140 0 0 -135 0 -135 140 0 140 0 0 -140 0
-140 135 0 135 0 0 140 0 140 140 0 140 0 0 135 0 135 -140 0 -140 0 0 140 0
140 -135 0 -135 0 0 -140z m230 -20 c0 -104 1 -112 25 -135 22 -23 31 -25 128
-25 67 0 107 -4 115 -12 12 -12 17 -134 6 -162 -5 -13 -25 -16 -116 -16 -102
0 -110 -1 -133 -25 -23 -22 -25 -31 -25 -128 0 -67 -4 -107 -12 -115 -12 -12
-134 -17 -162 -6 -13 5 -16 25 -16 116 0 102 -1 110 -25 133 -23 24 -31 25
-133 25 -91 0 -111 3 -116 16 -11 28 -6 150 6 162 8 8 48 12 115 12 97 0 106
2 128 25 24 23 25 31 25 135 l0 110 95 0 95 0 0 -110z"/>
</g>
</svg>
