<?xml version="1.0" standalone="no"?>
<!DOCTYPE svg PUBLIC "-//W3C//DTD SVG 20010904//EN"
 "http://www.w3.org/TR/2001/REC-SVG-20010904/DTD/svg10.dtd">
<svg version="1.0" xmlns="http://www.w3.org/2000/svg"
 width="275.000000pt" height="73.000000pt" viewBox="0 0 275.000000 73.000000"
 preserveAspectRatio="xMidYMid meet">
<metadata>
Created by potrace 1.10, written by Peter Selinger 2001-2011
</metadata>
<g transform="translate(0.000000,73.000000) scale(0.100000,-0.100000)"
fill="#000000" stroke="none">
<path d="M960 649 c0 -8 -18 -54 -40 -104 -22 -49 -40 -90 -40 -92 0 -2 7 -3
15 -3 9 0 20 11 25 25 8 20 16 25 45 25 29 0 37 -5 45 -25 6 -15 17 -25 29
-25 17 0 15 9 -24 100 -43 103 -55 124 -55 99z m24 -106 c6 -20 4 -23 -19 -23
-22 0 -26 3 -20 18 4 9 10 25 13 36 5 20 14 11 26 -31z"/>
<path d="M1732 640 c-5 -14 -26 -62 -45 -107 -31 -74 -33 -83 -17 -83 11 0 20
10 24 25 5 21 12 25 45 25 33 0 40 -4 45 -25 4 -16 13 -25 26 -25 17 0 15 8
-19 93 -21 50 -41 99 -44 107 -3 11 -7 8 -15 -10z m22 -82 c9 -35 8 -38 -18
-38 -23 0 -24 2 -13 30 14 36 23 38 31 8z"/>
<path d="M690 623 c-26 -23 -31 -36 -32 -72 0 -38 4 -49 31 -73 41 -36 121
-38 121 -3 0 9 -11 12 -39 8 -31 -4 -43 -1 -60 16 -48 48 -10 128 55 118 36
-6 56 9 33 24 -29 18 -78 10 -109 -18z"/>
<path d="M1130 550 c0 -90 2 -100 18 -100 15 0 17 6 14 35 -4 33 -3 35 27 35
38 0 71 31 71 65 0 40 -33 65 -85 65 l-45 0 0 -100z m91 54 c18 -21 0 -48 -35
-52 -24 -3 -26 0 -26 32 0 31 3 36 24 36 13 0 29 -7 37 -16z"/>
<path d="M1340 550 c0 -89 2 -100 18 -100 15 0 17 11 17 100 0 89 -2 100 -17
100 -16 0 -18 -11 -18 -100z"/>
<path d="M1450 635 c0 -10 10 -15 31 -15 l30 0 -3 -85 c-3 -76 -1 -85 15 -85
15 0 17 11 17 85 0 84 0 85 25 85 16 0 25 6 25 15 0 12 -14 15 -70 15 -56 0
-70 -3 -70 -15z"/>
<path d="M1900 550 l0 -100 70 0 c56 0 70 3 70 15 0 11 -12 15 -50 15 l-50 0
0 85 c0 78 -2 85 -20 85 -19 0 -20 -7 -20 -100z"/>
<path d="M133 343 c65 -2 168 -2 230 0 62 1 9 3 -118 3 -126 0 -177 -2 -112
-3z"/>
<path d="M2398 333 c61 -2 163 -2 225 0 61 1 11 3 -113 3 -124 0 -174 -2 -112
-3z"/>
<path d="M1300 175 c0 -101 1 -105 21 -105 20 0 21 4 16 58 l-6 57 20 -27 c11
-14 28 -36 38 -49 l18 -22 29 46 c16 26 32 46 36 47 4 0 4 -25 1 -55 -5 -51
-4 -55 16 -55 20 0 21 4 21 107 l0 107 -51 -72 c-28 -40 -54 -70 -58 -67 -5 2
-28 34 -52 70 -23 36 -44 65 -46 65 -2 0 -3 -47 -3 -105z"/>
<path d="M1662 260 c-5 -14 -26 -62 -45 -107 -31 -74 -33 -83 -17 -83 11 0 20
10 24 25 5 21 12 25 45 25 33 0 40 -4 45 -25 4 -16 13 -25 26 -25 17 0 15 8
-19 93 -21 50 -41 99 -44 107 -3 11 -7 8 -15 -10z m23 -92 c6 -25 4 -28 -17
-28 -24 0 -25 2 -14 35 12 37 21 35 31 -7z"/>
<path d="M530 170 c0 -82 3 -100 15 -100 10 0 15 11 15 35 0 46 23 46 52 0 13
-19 31 -35 41 -35 19 0 18 4 -15 53 -11 15 -15 27 -10 27 5 0 15 13 22 29 21
51 -16 91 -84 91 l-36 0 0 -100z m89 52 c13 -25 -5 -52 -34 -52 -22 0 -25 5
-25 35 0 31 3 35 25 35 13 0 29 -8 34 -18z"/>
<path d="M778 241 c-27 -24 -33 -36 -33 -71 0 -35 6 -47 33 -71 42 -37 89 -39
130 -4 38 32 48 74 28 114 -35 67 -103 81 -158 32z m112 -21 c28 -28 27 -84
-2 -104 -51 -36 -108 -7 -108 54 0 29 6 43 22 54 31 22 64 20 88 -4z"/>
<path d="M1051 241 c-25 -24 -31 -37 -31 -71 0 -92 104 -135 169 -69 92 92
-43 229 -138 140z m118 -27 c12 -15 21 -34 21 -44 0 -29 -39 -70 -68 -70 -32
0 -72 36 -72 65 0 12 9 34 21 49 28 35 70 35 98 0z"/>
<path d="M1820 255 c0 -9 9 -15 25 -15 25 0 25 -1 25 -85 0 -76 2 -85 18 -85
17 0 18 8 14 85 l-5 85 32 0 c21 0 31 5 31 15 0 12 -14 15 -70 15 -56 0 -70
-3 -70 -15z"/>
<path d="M2040 170 l0 -100 68 0 c54 0 69 3 69 15 0 11 -13 15 -54 15 -52 0
-53 0 -53 30 0 29 0 30 45 23 42 -5 45 -4 45 17 0 21 -3 22 -45 18 -44 -5 -45
-5 -45 23 0 28 2 29 50 29 38 0 50 4 50 15 0 12 -14 15 -65 15 l-65 0 0 -100z"/>
</g>
</svg>
